<svg xmlns="http://www.w3.org/2000/svg" style="display:none">
    <symbol id="icon-mountain" viewBox="0 0 24 24">
        <path d="M15.21,7.91c1.44,0,2.6-1.17,2.6-2.6s-1.17-2.6-2.6-2.6-2.6,1.17-2.6,2.6,1.17,2.6,2.6,2.6ZM15.21,3.7c.88,0,1.6.72,1.6,1.6s-.72,1.6-1.6,1.6-1.6-.72-1.6-1.6.72-1.6,1.6-1.6Z"
              style="fill:currentColor;"/>
        <path d="M23.84,19.65l-6.5-10.63-3.99,6.04-4.62-7.71c-.12-.19-.32-.31-.54-.31-.21,0-.43.11-.55.29L.27,18.65H.27c-.13.2-.14.45-.03.66.11.21.33.34.57.34h14.15c.09,0,.18-.03.26-.07v.07h8.62ZM8.16,8.35l2.3,3.83h-4.79l2.49-3.83ZM1.46,18.65l3.55-5.46h6.04l3.28,5.46H1.46ZM13.92,16.01l3.39-5.13,4.75,7.76h-6.55l-1.58-2.64Z"
              style="fill:currentColor;"/>
    </symbol>

    <symbol id="icon-earth" viewBox="0 0 24 24">
        <path d="M12,1.71C6.33,1.71,1.71,6.33,1.71,12s4.62,10.29,10.29,10.29,10.29-4.62,10.29-10.29S17.67,1.71,12,1.71ZM12,2.71c.69,0,1.37.08,2.01.23.03.58.07,1.72-.02,2.34-.08.55-2.12,2.46-4.79,2.84-.63.09-1.08.33-1.33.73-.47.72-.19,1.67.12,2.78.3,1.05.63,2.24.29,3.21-.11.31-.29.5-.58.6-1.22.45-3.68-.71-4.73-1.3-.16-.69-.26-1.4-.26-2.14C2.71,6.88,6.88,2.71,12,2.71ZM3.4,15.49c.98.47,2.43,1.05,3.66,1.05.35,0,.68-.05.98-.16.57-.21.98-.63,1.18-1.21.45-1.28.06-2.63-.27-3.82-.23-.8-.46-1.62-.24-1.96.09-.14.31-.24.64-.28,2.76-.39,5.46-2.39,5.64-3.69.08-.59.07-1.54.04-2.19,3.13,1.09,5.51,3.8,6.1,7.13-1.81-.11-6.64-.24-7.88,1.46-.26.36-.49.96-.13,1.82,1.1,2.61,2.39,2.92,3.33,3.14.34.08.61.15.81.31.58.48.9,1.29,1.04,1.72-1.53,1.42-3.54,2.32-5.75,2.45.04-.79-.03-2.19-.86-3.05-.56-.58-1.35-.82-2.34-.7-1.23.15-2.02.59-2.35,1.3-.14.3-.17.61-.16.91-1.53-1.03-2.74-2.5-3.44-4.22ZM7.9,19.23c.22-.47.97-.66,1.56-.73.67-.08,1.16.05,1.49.4.55.58.62,1.67.59,2.36-1.24-.06-2.42-.36-3.49-.87-.14-.26-.34-.78-.15-1.16ZM19.07,18.01c-.22-.54-.59-1.22-1.17-1.7-.37-.31-.8-.41-1.21-.51-.85-.21-1.74-.42-2.64-2.56-.19-.46-.08-.7.02-.84.79-1.09,4.66-1.22,7.2-1.04.01.21.03.42.03.63,0,2.29-.84,4.39-2.22,6.01Z"
              style="fill:currentColor;"/>
    </symbol>

    <symbol id="icon-home" viewBox="0 0 24 24">
        <path d="M20.87,10.23l-7.82-8c-.57-.58-1.5-.62-2.11-.07l-7.73,6.87c-.33.29-.51.71-.51,1.14v8.68c0,.84.69,1.53,1.53,1.53h1.47v1.85h1v-1.85h9.43v1.85h1v-1.85h2.64c.84,0,1.53-.69,1.53-1.53v-7.55c0-.4-.15-.78-.44-1.07ZM13.6,19.38h-4.3v-4.94c0-1.19.96-2.15,2.15-2.15s2.15.96,2.15,2.15v4.94ZM20.3,18.85c0,.29-.24.53-.53.53h-5.17v-4.94c0-1.74-1.41-3.15-3.15-3.15s-3.15,1.41-3.15,3.15v4.94h-4.08c-.29,0-.53-.24-.53-.53v-8.68c0-.15.06-.3.18-.4l7.73-6.87c.1-.09.23-.13.35-.13.14,0,.28.05.38.16l7.82,8c.1.1.15.23.15.37v7.55Z"
              style="fill:currentColor;"/>
        <path d="M12,5.51c-1.03,0-1.87.84-1.87,1.87s.84,1.87,1.87,1.87,1.87-.84,1.87-1.87-.84-1.87-1.87-1.87ZM12,8.24c-.48,0-.87-.39-.87-.87s.39-.87.87-.87.87.39.87.87-.39.87-.87.87Z"
              style="fill:currentColor;"/>
    </symbol>

    <symbol id="icon-tag" viewBox="0 0 24 24">
        <path d="M21.45,12.33L12.83,3.15c-.33-.35-.78-.54-1.26-.54H3.81c-.95,0-1.72.77-1.72,1.72v8.05c0,.46.18.89.5,1.22l8.76,8.76c.34.34.78.5,1.22.5s.88-.17,1.22-.5l7.62-7.62c.66-.66.68-1.71.04-2.4ZM20.7,14.02l-7.62,7.62c-.28.28-.74.28-1.02,0L3.3,12.89c-.14-.14-.21-.32-.21-.51V4.33c0-.4.32-.72.72-.72h7.77c.2,0,.39.08.53.23l8.61,9.18c.27.29.26.73-.02,1.01Z"
              style="fill:currentColor;"/>
        <circle cx="7.36" cy="7.62" r="1.03" style="fill:currentColor;"/>
    </symbol>
</svg>

